<svg width="18" height="18" viewBox="0 0 18 18" fill="none" xmlns="http://www.w3.org/2000/svg">
<path d="M13.4233 11.2365L11.9812 12.049C11.8082 12.1464 11.608 12.1845 11.4112 12.1575C11.2145 12.1304 11.0319 12.0398 10.8916 11.8993L6.07846 7.08619C5.93808 6.94575 5.84748 6.76325 5.82046 6.56652C5.79345 6.3698 5.83149 6.16963 5.9288 5.99654L6.74122 4.55447C6.88745 4.29493 6.94471 3.99465 6.90423 3.69951C6.86376 3.40436 6.72778 3.13058 6.51708 2.91999L4.3557 0.758609C4.22902 0.631866 4.07861 0.531325 3.91306 0.462728C3.74751 0.394132 3.57007 0.358826 3.39087 0.358826C3.21167 0.358826 3.03423 0.394132 2.86868 0.462728C2.70313 0.531325 2.55272 0.631866 2.42604 0.758609L1.44466 1.7393C0.870783 2.31317 0.505233 3.06243 0.406137 3.86794C0.307042 4.67344 0.48009 5.48896 0.897767 6.18482L1.39018 7.00551C3.90483 11.1965 7.45418 14.671 11.6978 17.0958L11.795 17.1517C13.2447 17.98 15.0357 17.7386 16.1964 16.5786L17.2212 15.5538C17.348 15.4271 17.4485 15.2767 17.5171 15.1111C17.5857 14.9456 17.621 14.7682 17.621 14.589C17.621 14.4098 17.5857 14.2323 17.5171 14.0668C17.4485 13.9012 17.348 13.7508 17.2212 13.6241L15.0585 11.4614C14.8479 11.2504 14.574 11.1142 14.2787 11.0736C13.9834 11.033 13.683 11.0902 13.4233 11.2365Z" fill="black"/>
</svg>
