<svg width="188" height="191" viewBox="0 0 188 191" fill="none" xmlns="http://www.w3.org/2000/svg">
<path d="M181.403 0.246366C183.662 -0.102463 185.782 1.44575 186.074 3.71282C189.188 27.8666 186.936 52.4281 179.459 75.641C171.558 100.168 158.04 122.512 139.983 140.895C121.925 159.277 99.8254 173.191 75.4431 181.528C52.3673 189.419 27.8498 192.108 3.64432 189.426C1.37241 189.174 -0.213362 187.082 0.0951228 184.817C0.40361 182.552 2.48948 180.972 4.76172 181.221C27.6901 183.731 50.9082 181.169 72.7649 173.696C95.9281 165.776 116.923 152.558 134.077 135.094C151.232 117.631 164.074 96.4036 171.58 73.1029C178.662 51.1164 180.81 27.8563 177.891 4.97635C177.602 2.70891 179.144 0.595196 181.403 0.246366Z" fill="white"/>
</svg>
