<svg width="310" height="283" viewBox="0 0 310 283" fill="none" xmlns="http://www.w3.org/2000/svg">
<path d="M48.8412 281.201C47.5981 282.375 45.6358 282.322 44.4844 281.057C29.4286 264.521 17.8265 245.131 10.3726 224.025C2.57488 201.944 -0.509977 178.475 1.31687 155.13C3.14372 131.784 9.84174 109.08 20.9792 88.4817C32.1168 67.883 47.4467 49.8465 65.9808 35.5345C84.5151 21.2225 105.842 10.9527 128.588 5.38696C151.334 -0.178808 174.994 -0.917017 198.042 3.21989C221.091 7.35679 243.017 16.277 262.407 29.4057C280.942 41.9553 296.767 58.0842 308.958 76.8327C309.89 78.2665 309.446 80.1785 307.995 81.0842C306.544 81.9898 304.637 81.546 303.703 80.1128C291.972 62.098 276.754 46.5987 258.935 34.5341C240.261 21.8905 219.145 13.2999 196.948 9.3158C174.751 5.33175 151.966 6.0427 130.06 11.4028C108.155 16.763 87.6155 26.6533 69.7661 40.4365C51.9167 54.2197 37.1532 71.5898 26.4272 91.4274C15.7012 111.265 9.25069 133.13 7.49134 155.613C5.73199 178.096 8.70286 200.698 16.2125 221.962C23.3783 242.253 34.5248 260.896 48.9869 276.803C50.1374 278.068 50.0843 280.026 48.8412 281.201Z" fill="white"/>
</svg>
