<svg width="28" height="28" viewBox="0 0 28 28" fill="none" xmlns="http://www.w3.org/2000/svg">
<path d="M14.0003 0.320007C6.44031 0.320007 0.320312 6.44001 0.320312 14C0.320312 21.56 6.44031 27.68 14.0003 27.68C21.5603 27.68 27.6803 21.56 27.6803 14C27.6803 6.44001 21.5603 0.320007 14.0003 0.320007ZM14.0003 26.24C7.23231 26.24 1.76031 20.768 1.76031 14C1.76031 7.23201 7.23231 1.76001 14.0003 1.76001C20.7683 1.76001 26.2403 7.23201 26.2403 14C26.2403 20.768 20.7683 26.24 14.0003 26.24ZM15.0083 14L19.5443 9.46401C19.8323 9.17601 19.8323 8.74401 19.5443 8.45601C19.2563 8.16801 18.8243 8.16801 18.5363 8.45601L14.0003 12.992L9.46431 8.45601C9.17631 8.16801 8.74431 8.16801 8.45631 8.45601C8.16831 8.74401 8.16831 9.17601 8.45631 9.46401L12.9923 14L8.45631 18.536C8.16831 18.824 8.16831 19.256 8.45631 19.544C8.74431 19.832 9.17631 19.832 9.46431 19.544L14.0003 15.008L18.5363 19.544C18.8243 19.832 19.2563 19.832 19.5443 19.544C19.8323 19.256 19.8323 18.824 19.5443 18.536L15.0083 14Z" fill="white"/>
</svg>
