<svg width="416" height="396" viewBox="0 0 416 396" fill="none" xmlns="http://www.w3.org/2000/svg">
<path d="M105.841 298.201C104.598 299.375 102.636 299.322 101.484 298.057C86.4286 281.521 74.8265 262.131 67.3726 241.025C59.5749 218.944 56.49 195.475 58.3169 172.13C60.1437 148.784 66.8417 126.08 77.9793 105.482C89.1168 84.8831 104.447 66.8465 122.981 52.5345C141.515 38.2226 162.842 27.9527 185.588 22.387C208.334 16.8212 231.994 16.083 255.042 20.2199C278.091 24.3568 300.017 33.277 319.407 46.4057C337.942 58.9553 353.768 75.0842 365.958 93.8327C366.89 95.2665 366.446 97.1785 364.995 98.0842V98.0842C363.544 98.9898 361.637 98.546 360.703 97.1128C348.972 79.098 333.754 63.5987 315.935 51.5341C297.261 38.8905 276.145 30.2999 253.948 26.3158C231.751 22.3318 208.966 23.0427 187.06 28.4028C165.155 33.7629 144.616 43.6533 126.766 57.4365C108.917 71.2197 94.1532 88.5898 83.4272 108.427C72.7012 128.265 66.2507 150.13 64.4913 172.613C62.732 195.096 65.7029 217.698 73.2125 238.962C80.3783 259.253 91.5248 277.896 105.987 293.803C107.137 295.068 107.084 297.026 105.841 298.201V298.201Z" fill="white"/>
<path d="M352.299 152.986V146.826H360.939V152.986H352.299ZM330.539 172.826C326.272 172.826 322.406 172.026 318.939 170.426C315.526 168.88 312.806 166.693 310.779 163.866C308.806 161.093 307.819 157.92 307.819 154.346C307.819 153.226 307.899 151.76 308.059 149.946C308.272 148.08 308.512 146.026 308.779 143.786C309.099 141.546 309.446 139.28 309.819 136.986C310.192 134.64 310.539 132.426 310.859 130.346L317.579 131.386C316.992 135.013 316.486 138.4 316.059 141.546C315.632 144.64 315.286 147.28 315.019 149.466C314.806 151.653 314.699 153.28 314.699 154.346C314.699 156.746 315.339 158.853 316.619 160.666C317.952 162.533 319.819 164 322.219 165.066C324.619 166.133 327.392 166.666 330.539 166.666C333.686 166.666 336.379 166.16 338.619 165.146C340.859 164.186 342.566 162.8 343.739 160.986C344.912 159.226 345.499 157.173 345.499 154.826V112.986H352.299V154.826C352.299 158.56 351.312 161.76 349.339 164.426C347.419 167.146 344.806 169.226 341.499 170.666C338.246 172.106 334.592 172.826 330.539 172.826ZM360.939 152.986V146.826C361.632 146.826 362.059 147.093 362.219 147.626C362.432 148.16 362.539 148.906 362.539 149.866C362.539 150.773 362.432 151.52 362.219 152.106C362.059 152.693 361.632 152.986 360.939 152.986ZM326.779 112.586V105.146H333.659V112.586H326.779ZM360.947 152.986V146.826H400.947L398.547 148.906V135.146C398.547 132.266 398.174 129.92 397.427 128.106C396.681 126.24 395.561 124.853 394.067 123.946C392.627 123.04 390.787 122.586 388.547 122.586H371.107L366.227 115.306L369.747 108.506C370.387 107.386 371.027 106.24 371.667 105.066C372.361 103.84 373.214 102.426 374.227 100.826C375.241 99.2262 376.521 97.2795 378.067 94.9862L383.747 98.4262C382.254 100.72 381.027 102.64 380.067 104.186C379.107 105.68 378.307 106.986 377.667 108.106C377.027 109.173 376.414 110.266 375.827 111.386L371.907 118.826L370.307 116.346H388.547C391.907 116.346 394.681 116.933 396.867 118.106C399.054 119.226 400.761 120.746 401.987 122.666C403.267 124.533 404.147 126.56 404.627 128.746C405.161 130.933 405.427 133.066 405.427 135.146V152.986H360.947ZM360.947 152.986C360.254 152.986 359.827 152.693 359.667 152.106C359.454 151.52 359.347 150.773 359.347 149.866C359.347 148.906 359.454 148.16 359.667 147.626C359.827 147.093 360.254 146.826 360.947 146.826V152.986Z" fill="white"/>
<path d="M194.68 250.24V260H148.2C143.56 260 139.613 259.653 136.36 258.96C133.16 258.267 130.52 256.8 128.44 254.56C126.36 252.32 125.32 248.987 125.32 244.56C125.32 242.267 125.56 239.653 126.04 236.72C126.573 233.733 127.16 231.013 127.8 228.56L136.44 229.04L135.88 234.08C135.347 237.973 135.08 240.64 135.08 242.08C135.08 247.52 139.027 250.24 146.92 250.24H172.04V220H182.76V250.24H194.68ZM145 210H153.24V220H145V210ZM157.16 210H165.4V220H157.16V210ZM194.672 250.24H214.672V260H194.672V250.24ZM214.672 250.24H234.672V260H214.672V250.24ZM234.672 250.24H254.672V260H234.672V250.24ZM254.672 250.24H274.672V260H254.672V250.24ZM297.312 220V260H274.672V250.24H286.592V220H297.312ZM287.152 202.16H296.992V212.56H287.152V202.16ZM309.275 210.88H319.995V260H309.275V210.88ZM323.435 203.12L305.915 206.56L305.035 202.8L308.715 201.84C306.635 200.08 305.595 197.92 305.595 195.36C305.595 193.173 306.368 191.28 307.915 189.68C309.515 188.08 311.542 187.28 313.995 187.28C316.075 187.28 318.155 187.92 320.235 189.2L319.195 194C318.875 193.733 318.422 193.493 317.835 193.28C317.248 193.013 316.582 192.88 315.835 192.88C314.608 192.88 313.595 193.28 312.795 194.08C312.048 194.88 311.675 195.84 311.675 196.96C311.675 198.453 312.315 199.653 313.595 200.56L322.315 198.24L323.435 203.12Z" fill="url(#paint0_linear_135_50)"/>
<path d="M27.28 345.029C19.28 345.029 13.2533 343.615 9.2 340.789C5.2 337.909 3.2 333.509 3.2 327.589C3.2 326.309 3.28 324.949 3.44 323.509C3.65333 322.015 3.89333 320.575 4.16 319.189C4.42667 317.749 4.66667 316.522 4.88 315.509C5.09333 314.442 5.22667 313.722 5.28 313.349L11.92 314.629C11.76 315.429 11.52 316.575 11.2 318.069C10.9333 319.562 10.6667 321.135 10.4 322.789C10.1867 324.442 10.08 326.042 10.08 327.589C10.08 330.255 10.64 332.442 11.76 334.149C12.88 335.802 14.6933 337.002 17.2 337.749C19.76 338.495 23.1467 338.869 27.36 338.869H50.64V305.029H57.44V345.029H27.28ZM27.2 294.469V287.509H33.44V294.469H27.2ZM21.2 305.269V297.829H28V305.269H21.2ZM32.64 305.269V297.829H39.44V305.269H32.64ZM98.15 345.029V338.869H106.71V345.029H98.15ZM66.95 345.029V338.869H96.71L91.27 343.669V326.789C91.27 322.842 90.8167 319.749 89.91 317.509C89.0567 315.215 87.6167 313.589 85.59 312.629C83.5633 311.669 80.8433 311.189 77.43 311.189H70.95V305.029H77.43C81.8033 305.029 85.5367 305.722 88.63 307.109C91.7233 308.442 94.07 310.709 95.67 313.909C97.3233 317.055 98.15 321.349 98.15 326.789V345.029H66.95ZM106.71 345.029V338.869C107.403 338.869 107.83 339.135 107.99 339.669C108.203 340.202 108.31 340.949 108.31 341.909C108.31 342.815 108.203 343.562 107.99 344.149C107.83 344.735 107.403 345.029 106.71 345.029ZM146.559 345.029V338.869H155.199V345.029H146.559ZM106.719 345.029V338.869H141.839L139.759 340.709V321.589C139.759 318.122 138.665 315.535 136.479 313.829C134.345 312.122 131.092 311.269 126.719 311.269C125.332 311.269 123.359 311.402 120.799 311.669C118.292 311.882 115.625 312.175 112.799 312.549L111.999 307.029C114.185 306.495 116.559 306.042 119.119 305.669C121.732 305.242 124.265 305.029 126.719 305.029C130.772 305.029 134.292 305.669 137.279 306.949C140.265 308.229 142.559 310.095 144.159 312.549C145.759 315.002 146.559 318.015 146.559 321.589V345.029H106.719ZM106.719 345.029C106.025 345.029 105.599 344.735 105.439 344.149C105.225 343.562 105.119 342.815 105.119 341.909C105.119 340.949 105.225 340.202 105.439 339.669C105.599 339.135 106.025 338.869 106.719 338.869V345.029ZM155.199 345.029V338.869C155.892 338.869 156.319 339.135 156.479 339.669C156.692 340.202 156.799 340.949 156.799 341.909C156.799 342.815 156.692 343.562 156.479 344.149C156.319 344.735 155.892 345.029 155.199 345.029ZM164.834 345.029V287.749H171.714V345.029H164.834ZM155.234 345.029V338.869H164.834V345.029H155.234ZM155.234 345.029C154.541 345.029 154.114 344.735 153.954 344.149C153.741 343.562 153.634 342.815 153.634 341.909C153.634 340.949 153.741 340.202 153.954 339.669C154.114 339.135 154.541 338.869 155.234 338.869V345.029ZM185.334 345.029V287.749H192.134V345.029H185.334Z" fill="white"/>
<path d="M385.403 164.246C387.662 163.898 389.782 165.446 390.074 167.713C393.188 191.867 390.936 216.428 383.459 239.641C375.558 264.168 362.04 286.512 343.983 304.895C325.925 323.277 303.825 337.191 279.443 345.528C256.367 353.419 231.85 356.108 207.644 353.426C205.372 353.174 203.787 351.082 204.095 348.817V348.817C204.404 346.552 206.489 344.972 208.762 345.221C231.69 347.731 254.908 345.169 276.765 337.696C299.928 329.776 320.923 316.558 338.077 299.094C355.232 281.631 368.074 260.404 375.58 237.103C382.662 215.116 384.81 191.856 381.891 168.976C381.602 166.709 383.144 164.595 385.403 164.246V164.246Z" fill="white"/>
<defs>
<linearGradient id="paint0_linear_135_50" x1="307.75" y1="183.674" x2="281.774" y2="317.146" gradientUnits="userSpaceOnUse">
<stop offset="0.0864582" stop-color="#FCD635"/>
<stop offset="0.253125" stop-color="#AFBD74"/>
<stop offset="0.289583" stop-color="#158AF2"/>
<stop offset="0.508333" stop-color="#D22DA7"/>
<stop offset="0.685417" stop-color="#FF5868"/>
<stop offset="0.857292" stop-color="#FDEB00"/>
</linearGradient>
</defs>
</svg>
